PathFileType	4	(X/Y/Z)	 Patient4_HipIso.trc
DataRate	CameraRate	NumFrames	NumMarkers	Units	OrigDataRate	OrigDataStartFrame	OrigNumFrames
100	100	9	33	mm	100	2023	2696
Frame#	Time	Sacral			L.Shoulder			Chest			R.Shoulder			Neck			R.ASIS			L.ASIS			R.Thigh.Superior			R.Thigh.Lateral			R.Thigh.Inferior			R.Patella			L.Thigh.Superior			L.Thigh.Lateral			L.Thigh.Inferior			L.Patella			L.Shank.Superior			L.Shank.Lateral			L.Shank.Inferior			R.Shank.Superior			R.Shank.Lateral			R.Shank.Inferior			R.Heel			R.Midfoot.Superior			R.Midfoot.Lateral			R.Toe			L.Heel			L.Midfoot.Lateral			L.Midfoot.Superior			L.Toe			L.Elbow			L.Wrist			R.Elbow			R.Wrist			
		X1	Y1	Z1	X2	Y2	Z2	X3	Y3	Z3	X4	Y4	Z4	X5	Y5	Z5	X6	Y6	Z6	X7	Y7	Z7	X8	Y8	Z8	X9	Y9	Z9	X10	Y10	Z10	X11	Y11	Z11	X12	Y12	Z12	X13	Y13	Z13	X14	Y14	Z14	X15	Y15	Z15	X16	Y16	Z16	X17	Y17	Z17	X18	Y18	Z18	X19	Y19	Z19	X20	Y20	Z20	X21	Y21	Z21	X22	Y22	Z22	X23	Y23	Z23	X24	Y24	Z24	X25	Y25	Z25	X26	Y26	Z26	X27	Y27	Z27	X28	Y28	Z28	X29	Y29	Z29	X30	Y30	Z30	X31	Y31	Z31	X32	Y32	Z32	X33	Y33	Z33	

2023	20.2200	817.860230	1061.430200	442.927220	522.311580	1440.701700	587.978090	444.505190	1303.414100	465.588470	478.302430	1383.077000	278.547300	538.742920	1464.076800	444.266300	625.844420	894.838070	374.495480	663.825380	960.439940	633.103760	621.639100	723.008480	423.160740	704.812990	615.790160	351.265900	644.427800	568.124630	445.270840	649.896850	487.884280	440.603450	759.120970	735.784240	623.885620	906.513180	708.949340	665.286500	889.310910	583.120730	622.709900	930.823360	524.435000	616.318120	1004.798600	492.458590	620.128720	1155.306800	478.217500	652.507810	1184.716400	350.290470	596.950320	671.647950	398.590580	440.129460	736.517400	284.554440	385.334470	688.104000	200.512240	461.180970	812.174500	36.564030	511.741000	641.516420	89.438850	468.808930	731.674440	27.815610	434.565310	522.447880	36.796690	439.686190	1378.374400	307.007970	534.041260	1338.161500	270.374940	629.184140	1232.402800	262.110470	621.544070	1173.757800	146.969510	676.258240	704.610110	1340.579500	849.505980	491.614560	1416.307900	970.085080	628.577330	1159.650300	64.611670	532.723450	1092.155200	-152.764160	
2024	20.2300	818.297180	1060.627400	443.318210	524.868710	1441.851900	588.334350	446.302830	1305.104100	465.577240	480.720670	1384.885100	278.860870	541.390440	1465.502300	444.716190	625.241760	895.575740	374.242220	662.977290	960.616270	632.843260	620.516850	722.811950	422.341520	704.498290	615.896360	351.252080	643.732790	568.139340	445.037200	649.405880	487.780030	440.584050	754.495420	735.028080	623.081970	900.811950	705.387700	665.817440	881.796570	580.104980	621.919980	922.547910	520.358580	615.827820	996.104310	487.831970	620.390560	1146.097200	471.401980	654.229060	1173.745800	343.615020	598.648740	671.327150	398.462520	440.169560	736.276490	284.543180	385.528500	687.892940	200.472870	461.227690	812.165220	36.542000	511.760470	641.514650	89.422800	468.837890	731.974490	28.080480	434.098360	522.434450	36.773940	439.693820	1367.914900	297.570340	537.222290	1326.306400	261.201900	631.881590	1220.355300	254.602280	623.022890	1159.504200	140.045620	676.727480	705.971980	1339.900400	850.092350	492.360440	1415.542800	969.566470	628.886660	1160.200700	64.673650	532.608950	1092.386200	-152.443250	
2025	20.2400	818.418460	1059.838500	443.090000	527.479370	1442.918300	588.782100	448.122650	1307.017700	465.512630	483.314540	1386.851600	278.989410	544.092290	1466.787400	445.219480	624.682070	896.094120	374.080290	662.377380	960.625000	632.682560	619.307500	722.671690	421.399540	704.207090	616.048710	351.283390	643.216920	568.087890	444.784940	648.800420	487.713960	440.617100	749.607790	734.253850	622.143070	894.733520	701.696720	666.453060	873.916380	577.046330	621.106140	913.774780	516.497070	615.501950	987.083560	483.206020	620.405090	1136.395600	464.555790	656.139770	1162.913800	336.699740	600.276250	670.924800	398.388060	440.216340	735.956050	284.597410	385.738370	687.703670	200.399960	461.265470	812.164430	36.549030	511.780090	641.529420	89.443330	468.852720	731.934690	28.069390	434.123140	522.427670	36.770170	439.682040	1357.418600	288.245060	540.886900	1313.788900	251.998660	634.628230	1207.998400	247.097640	624.678220	1144.886400	133.389600	677.262020	707.375000	1339.103500	850.688840	493.199040	1414.576900	969.274720	629.365300	1160.758400	64.763340	532.452150	1092.572800	-152.038010	
2026	20.2500	819.024540	1059.196200	443.290530	530.126950	1444.058700	589.159670	450.003450	1308.873800	465.368840	485.943300	1388.770500	279.128330	546.818300	1468.065800	445.693700	624.179810	896.715030	373.657620	661.120850	960.936280	632.217770	618.262450	722.532900	420.428280	703.902830	616.174070	351.402400	642.518920	568.120180	444.568020	648.296510	487.644100	440.592860	744.542600	733.732420	621.363100	888.193120	698.169980	666.874150	865.788270	574.197330	620.383540	904.901550	512.840390	615.209590	977.545410	478.739650	620.726870	1126.351600	457.820590	658.193360	1151.693600	329.885650	601.980530	670.455200	398.324250	440.239590	735.757450	284.512050	385.920870	687.485530	200.337460	461.352570	812.168330	36.518730	511.819310	641.515200	89.456310	468.854860	731.926700	28.082100	434.154970	522.410830	36.758880	439.647160	1346.185700	278.797330	544.525210	1301.173800	243.081090	637.811650	1195.397100	239.835830	626.605350	1129.764800	126.882000	677.914920	708.732790	1338.126200	851.116330	493.773160	1413.288500	968.648990	629.921390	1161.304600	64.997630	532.411990	1092.796400	-151.437330	
2027	20.2600	819.568730	1058.427500	443.875430	532.818360	1445.084400	589.643800	451.890380	1310.713400	465.323760	488.659730	1390.725300	279.263850	549.534670	1469.304300	446.273770	623.715820	897.589050	373.191680	660.182370	961.209050	632.027340	617.491390	722.416020	419.641140	703.578310	616.332890	351.506770	641.927190	568.119260	444.401180	647.817630	487.521120	440.588410	739.286250	733.091980	620.391420	881.338440	694.506160	667.364380	857.258850	571.277100	619.444400	895.667970	509.429990	614.707280	967.782350	474.078800	620.618410	1115.911900	451.187130	660.378230	1140.254900	323.388580	603.820130	669.900390	398.284790	440.255680	735.522280	284.552490	386.078580	687.293270	200.274660	461.398860	812.166560	36.542410	511.845760	641.471560	89.478030	468.869720	732.075320	28.309090	434.019170	522.430540	36.753940	439.625120	1334.741900	269.582120	548.850460	1288.023900	234.285110	641.200810	1181.923800	232.252180	628.037540	1114.359300	120.622130	678.670960	710.082280	1337.077900	851.824830	494.477200	1411.766000	968.181640	630.598880	1161.799600	65.313610	532.431880	1093.094700	-150.782580	
2028	20.2700	820.237060	1057.758700	444.547580	535.531800	1446.196400	590.129940	453.839690	1312.633800	465.177520	491.441620	1392.620200	279.451080	552.321290	1470.548700	446.943450	623.285220	898.181580	373.091770	659.145690	961.452580	631.757320	616.673770	721.246640	417.952940	703.334840	616.548340	351.616790	641.300900	568.213500	444.118530	647.206180	487.523500	440.602510	733.926390	732.495910	619.409060	874.177550	690.922180	667.634950	848.669490	568.686710	618.829100	886.194150	505.952550	614.452450	957.632630	469.179530	620.214660	1105.064000	444.594360	662.745850	1128.591100	316.818450	605.681460	669.670650	398.062770	440.207460	735.178530	284.543120	386.006990	687.110600	200.207150	461.469240	812.216430	36.520600	511.778470	641.454410	89.476930	468.851100	731.997190	28.231760	434.139500	522.408080	36.738850	439.598750	1323.052500	260.466340	553.173580	1274.460400	225.599820	644.908940	1168.117600	225.762080	630.927800	1098.492900	114.617050	679.711300	711.338990	1335.690600	852.428530	495.086460	1410.059600	967.718080	631.319270	1162.290400	65.660420	532.491460	1093.340000	-150.053570	
2029	20.2800	820.924930	1057.014400	445.296360	538.278690	1447.221800	590.673400	455.775910	1314.490700	464.948730	494.234070	1394.642700	279.784270	555.168030	1471.820700	447.398350	622.951970	898.920040	372.534240	658.146480	961.727170	631.498170	615.917790	721.190060	417.251430	703.143680	616.788510	351.791410	640.666500	568.280760	443.934940	646.766360	487.444030	440.634250	728.341000	732.355220	618.482240	867.113890	687.819210	668.224180	839.817870	566.076970	618.248170	876.377380	502.660340	613.927060	947.821170	465.431400	620.969060	1093.922100	438.162410	665.179080	1116.412100	310.238650	607.832150	669.345280	397.975370	440.109380	735.221500	284.533570	386.223330	686.985170	200.189120	461.508210	812.218570	36.481610	511.788020	641.410220	89.460000	468.854550	731.939700	28.195920	434.195430	522.439940	36.741550	439.572880	1310.831800	251.355530	557.868840	1260.497900	217.049420	648.869450	1154.641100	219.205030	633.886470	1082.367400	108.726510	681.095400	712.493710	1333.984500	852.923650	495.752140	1408.369000	967.364260	632.221560	1162.850100	66.158510	532.675600	1093.571400	-149.168080	
2030	20.2900	821.569520	1056.475300	445.884980	541.062560	1448.198000	591.265990	457.775300	1316.375100	464.939820	497.182950	1396.652300	279.988800	558.000790	1472.989100	448.204960	622.690490	899.693420	372.209440	657.082820	962.077880	631.214360	615.080020	721.193420	416.595580	702.949650	616.961120	352.004210	640.109250	568.280270	443.732450	646.318850	487.351040	440.607090	722.788090	732.089970	617.466370	859.675660	684.516110	668.552060	830.776060	563.806760	617.657530	866.328310	499.651060	613.789370	937.380490	461.087520	621.311160	1082.473500	431.832890	667.722960	1104.236800	303.911410	609.382750	668.973690	397.894290	440.163970	735.060420	284.496550	386.290410	686.806460	200.140880	461.568360	812.187070	36.461830	511.824370	641.411010	89.503460	468.841160	731.988770	28.236930	434.197240	522.409610	36.744930	439.544400	1298.089600	242.101100	562.769170	1245.723900	208.436190	652.731990	1140.781300	211.946520	636.048100	1065.631200	103.064770	682.285160	713.402530	1331.979200	853.385800	496.409550	1406.495700	966.919490	633.158570	1163.360600	66.658270	532.968870	1093.982100	-148.251080	
2031	20.3000	821.557740	1055.923500	445.715760	543.845700	1449.085100	591.906680	459.786650	1318.271000	464.793240	500.132810	1398.614000	280.232760	560.783330	1474.191000	448.968290	622.499510	900.360530	372.034060	656.045900	962.568120	630.973080	614.410640	721.121220	415.976410	702.808040	617.053160	352.167540	639.432430	568.327450	443.620180	645.773500	487.335170	440.545500	717.094420	732.213560	616.545100	852.259580	681.667240	668.931340	821.700740	561.768430	617.160400	855.767090	496.247470	612.901060	926.650020	457.122830	621.631530	1070.581100	425.509950	670.220830	1091.333900	297.471890	611.607970	668.589600	397.788270	440.221070	735.014710	284.591030	386.700410	686.730900	200.074690	461.594450	812.171510	36.476650	511.862340	641.415950	89.504680	468.838840	731.924870	28.264980	434.272920	522.402400	36.736980	439.481990	1284.927600	232.831220	567.859920	1230.639500	199.931290	656.923710	1125.946500	205.262500	638.778080	1048.429200	97.696170	683.572880	714.522160	1330.105800	854.159910	497.272000	1404.957000	966.774170	634.229130	1163.947400	67.216710	533.268130	1094.365700	-147.366490	
